<mxfile host="app.diagrams.net" modified="2024-01-25T06:16:48.824Z" agent="Mozilla/5.0 (Windows NT 10.0; Win64; x64) AppleWebKit/537.36 (KHTML, like Gecko) Chrome/120.0.0.0 Safari/537.36" etag="o8GYtI21lsexCX84_H9D" version="23.0.1" type="gitlab">
  <diagram name="Page-1" id="03018318-947c-dd8e-b7a3-06fadd420f32">
    <mxGraphModel dx="1434" dy="825" grid="1" gridSize="10" guides="1" tooltips="1" connect="1" arrows="1" fold="1" page="1" pageScale="1" pageWidth="1100" pageHeight="850" background="none" math="0" shadow="0">
      <root>
        <mxCell id="0" />
        <mxCell id="1" parent="0" />
        <mxCell id="_vVUh05pe-uiF_YAsJHq-1" value="" style="whiteSpace=wrap;html=1;rounded=0;shadow=0;labelBackgroundColor=none;strokeColor=#000000;strokeWidth=1;fillColor=none;fontFamily=Verdana;fontSize=12;fontColor=#000000;align=center;comic=1;" parent="1" vertex="1">
          <mxGeometry x="40" y="40" width="1340" height="760" as="geometry" />
        </mxCell>
        <mxCell id="_vVUh05pe-uiF_YAsJHq-2" value="" style="line;strokeWidth=1;html=1;rounded=0;shadow=0;labelBackgroundColor=none;fillColor=none;fontFamily=Verdana;fontSize=14;fontColor=#000000;align=center;comic=1;" parent="1" vertex="1">
          <mxGeometry x="50" y="160" width="1290" height="10" as="geometry" />
        </mxCell>
        <mxCell id="_vVUh05pe-uiF_YAsJHq-3" value="" style="whiteSpace=wrap;html=1;rounded=0;shadow=0;labelBackgroundColor=none;strokeWidth=1;fillColor=none;fontFamily=Verdana;fontSize=12;align=center;comic=1;" parent="1" vertex="1">
          <mxGeometry x="60" y="180" width="1280" height="50" as="geometry" />
        </mxCell>
        <mxCell id="_vVUh05pe-uiF_YAsJHq-4" value="Home" style="text;html=1;points=[];align=left;verticalAlign=top;spacingTop=-4;fontSize=14;fontFamily=Verdana" parent="1" vertex="1">
          <mxGeometry x="568.5" y="195" width="60" height="20" as="geometry" />
        </mxCell>
        <mxCell id="_vVUh05pe-uiF_YAsJHq-5" value="Prediction" style="text;html=1;points=[];align=left;verticalAlign=top;spacingTop=-4;fontSize=14;fontFamily=Verdana" parent="1" vertex="1">
          <mxGeometry x="715.5" y="195" width="60" height="20" as="geometry" />
        </mxCell>
        <mxCell id="_vVUh05pe-uiF_YAsJHq-6" value="History" style="text;html=1;points=[];align=left;verticalAlign=top;spacingTop=-4;fontSize=14;fontFamily=Verdana" parent="1" vertex="1">
          <mxGeometry x="861.5" y="195" width="60" height="20" as="geometry" />
        </mxCell>
        <mxCell id="_vVUh05pe-uiF_YAsJHq-7" value="LOGO" style="html=1;whiteSpace=wrap;" parent="1" vertex="1">
          <mxGeometry x="70" y="80" width="110" height="50" as="geometry" />
        </mxCell>
        <mxCell id="_vVUh05pe-uiF_YAsJHq-8" value="&lt;font size=&quot;1&quot; style=&quot;&quot;&gt;&lt;b style=&quot;font-size: 17px;&quot;&gt;Logout&lt;/b&gt;&lt;/font&gt;" style="rounded=1;whiteSpace=wrap;html=1;fillColor=#f8cecc;strokeColor=#b85450;" parent="1" vertex="1">
          <mxGeometry x="1250" y="85" width="90" height="40" as="geometry" />
        </mxCell>
        <mxCell id="_vVUh05pe-uiF_YAsJHq-145" value="&lt;font style=&quot;font-size: 30px;&quot;&gt;&lt;b&gt;&lt;u&gt;Prediction History&lt;/u&gt;&lt;/b&gt;&lt;/font&gt;" style="text;html=1;strokeColor=none;fillColor=none;align=center;verticalAlign=middle;whiteSpace=wrap;rounded=0;" parent="1" vertex="1">
          <mxGeometry x="519" y="270" width="410" height="30" as="geometry" />
        </mxCell>
        <mxCell id="H2XTD4Kt-9Ox-NOwHn25-1" value="Assets" style="childLayout=tableLayout;recursiveResize=0;strokeColor=#98bf21;fillColor=#A7C942;shadow=1;" vertex="1" parent="1">
          <mxGeometry x="130" y="380" width="984.25" height="290" as="geometry" />
        </mxCell>
        <mxCell id="H2XTD4Kt-9Ox-NOwHn25-2" style="shape=tableRow;horizontal=0;startSize=0;swimlaneHead=0;swimlaneBody=0;top=0;left=0;bottom=0;right=0;dropTarget=0;collapsible=0;recursiveResize=0;expand=0;fontStyle=0;strokeColor=inherit;fillColor=#ffffff;" vertex="1" parent="H2XTD4Kt-9Ox-NOwHn25-1">
          <mxGeometry width="984.25" height="61" as="geometry" />
        </mxCell>
        <mxCell id="H2XTD4Kt-9Ox-NOwHn25-27" value="Image ID" style="connectable=0;recursiveResize=0;strokeColor=inherit;fillColor=#A7C942;align=center;fontStyle=1;fontColor=#FFFFFF;html=1;" vertex="1" parent="H2XTD4Kt-9Ox-NOwHn25-2">
          <mxGeometry width="59" height="61" as="geometry">
            <mxRectangle width="59" height="61" as="alternateBounds" />
          </mxGeometry>
        </mxCell>
        <mxCell id="H2XTD4Kt-9Ox-NOwHn25-3" value="Image Input" style="connectable=0;recursiveResize=0;strokeColor=inherit;fillColor=#A7C942;align=center;fontStyle=1;fontColor=#FFFFFF;html=1;" vertex="1" parent="H2XTD4Kt-9Ox-NOwHn25-2">
          <mxGeometry x="59" width="124" height="61" as="geometry">
            <mxRectangle width="124" height="61" as="alternateBounds" />
          </mxGeometry>
        </mxCell>
        <mxCell id="H2XTD4Kt-9Ox-NOwHn25-4" value="Prediction" style="connectable=0;recursiveResize=0;strokeColor=inherit;fillColor=#A7C942;align=center;fontStyle=1;fontColor=#FFFFFF;html=1;" vertex="1" parent="H2XTD4Kt-9Ox-NOwHn25-2">
          <mxGeometry x="183" width="130" height="61" as="geometry">
            <mxRectangle width="130" height="61" as="alternateBounds" />
          </mxGeometry>
        </mxCell>
        <mxCell id="H2XTD4Kt-9Ox-NOwHn25-5" value="Actual" style="connectable=0;recursiveResize=0;strokeColor=inherit;fillColor=#A7C942;align=center;fontStyle=1;fontColor=#FFFFFF;html=1;" vertex="1" parent="H2XTD4Kt-9Ox-NOwHn25-2">
          <mxGeometry x="313" width="124" height="61" as="geometry">
            <mxRectangle width="124" height="61" as="alternateBounds" />
          </mxGeometry>
        </mxCell>
        <mxCell id="H2XTD4Kt-9Ox-NOwHn25-37" value="Result" style="connectable=0;recursiveResize=0;strokeColor=inherit;fillColor=#A7C942;align=center;fontStyle=1;fontColor=#FFFFFF;html=1;" vertex="1" parent="H2XTD4Kt-9Ox-NOwHn25-2">
          <mxGeometry x="437" width="125" height="61" as="geometry">
            <mxRectangle width="125" height="61" as="alternateBounds" />
          </mxGeometry>
        </mxCell>
        <mxCell id="H2XTD4Kt-9Ox-NOwHn25-42" value="Model Version" style="connectable=0;recursiveResize=0;strokeColor=inherit;fillColor=#A7C942;align=center;fontStyle=1;fontColor=#FFFFFF;html=1;" vertex="1" parent="H2XTD4Kt-9Ox-NOwHn25-2">
          <mxGeometry x="562" width="124" height="61" as="geometry">
            <mxRectangle width="124" height="61" as="alternateBounds" />
          </mxGeometry>
        </mxCell>
        <mxCell id="H2XTD4Kt-9Ox-NOwHn25-22" value="Timestamp" style="connectable=0;recursiveResize=0;strokeColor=inherit;fillColor=#A7C942;align=center;fontStyle=1;fontColor=#FFFFFF;html=1;" vertex="1" parent="H2XTD4Kt-9Ox-NOwHn25-2">
          <mxGeometry x="686" width="153" height="61" as="geometry">
            <mxRectangle width="153" height="61" as="alternateBounds" />
          </mxGeometry>
        </mxCell>
        <mxCell id="H2XTD4Kt-9Ox-NOwHn25-47" value="Delete" style="connectable=0;recursiveResize=0;strokeColor=inherit;fillColor=#A7C942;align=center;fontStyle=1;fontColor=#FFFFFF;html=1;" vertex="1" parent="H2XTD4Kt-9Ox-NOwHn25-2">
          <mxGeometry x="839" width="145" height="61" as="geometry">
            <mxRectangle width="145" height="61" as="alternateBounds" />
          </mxGeometry>
        </mxCell>
        <mxCell id="H2XTD4Kt-9Ox-NOwHn25-6" value="" style="shape=tableRow;horizontal=0;startSize=0;swimlaneHead=0;swimlaneBody=0;top=0;left=0;bottom=0;right=0;dropTarget=0;collapsible=0;recursiveResize=0;expand=0;fontStyle=0;strokeColor=inherit;fillColor=#ffffff;" vertex="1" parent="H2XTD4Kt-9Ox-NOwHn25-1">
          <mxGeometry y="61" width="984.25" height="58" as="geometry" />
        </mxCell>
        <mxCell id="H2XTD4Kt-9Ox-NOwHn25-28" value="1" style="connectable=0;recursiveResize=0;strokeColor=inherit;fillColor=inherit;align=center;whiteSpace=wrap;html=1;" vertex="1" parent="H2XTD4Kt-9Ox-NOwHn25-6">
          <mxGeometry width="59" height="58" as="geometry">
            <mxRectangle width="59" height="58" as="alternateBounds" />
          </mxGeometry>
        </mxCell>
        <mxCell id="H2XTD4Kt-9Ox-NOwHn25-7" value="Value1.png" style="connectable=0;recursiveResize=0;strokeColor=inherit;fillColor=inherit;align=center;whiteSpace=wrap;html=1;" vertex="1" parent="H2XTD4Kt-9Ox-NOwHn25-6">
          <mxGeometry x="59" width="124" height="58" as="geometry">
            <mxRectangle width="124" height="58" as="alternateBounds" />
          </mxGeometry>
        </mxCell>
        <mxCell id="H2XTD4Kt-9Ox-NOwHn25-8" value="Carrot" style="connectable=0;recursiveResize=0;strokeColor=inherit;fillColor=inherit;align=center;whiteSpace=wrap;html=1;" vertex="1" parent="H2XTD4Kt-9Ox-NOwHn25-6">
          <mxGeometry x="183" width="130" height="58" as="geometry">
            <mxRectangle width="130" height="58" as="alternateBounds" />
          </mxGeometry>
        </mxCell>
        <mxCell id="H2XTD4Kt-9Ox-NOwHn25-9" value="Raddish" style="connectable=0;recursiveResize=0;strokeColor=inherit;fillColor=inherit;align=center;whiteSpace=wrap;html=1;" vertex="1" parent="H2XTD4Kt-9Ox-NOwHn25-6">
          <mxGeometry x="313" width="124" height="58" as="geometry">
            <mxRectangle width="124" height="58" as="alternateBounds" />
          </mxGeometry>
        </mxCell>
        <mxCell id="H2XTD4Kt-9Ox-NOwHn25-38" value="Failure" style="connectable=0;recursiveResize=0;strokeColor=inherit;fillColor=inherit;align=center;whiteSpace=wrap;html=1;" vertex="1" parent="H2XTD4Kt-9Ox-NOwHn25-6">
          <mxGeometry x="437" width="125" height="58" as="geometry">
            <mxRectangle width="125" height="58" as="alternateBounds" />
          </mxGeometry>
        </mxCell>
        <mxCell id="H2XTD4Kt-9Ox-NOwHn25-43" value="Small" style="connectable=0;recursiveResize=0;strokeColor=inherit;fillColor=inherit;align=center;whiteSpace=wrap;html=1;" vertex="1" parent="H2XTD4Kt-9Ox-NOwHn25-6">
          <mxGeometry x="562" width="124" height="58" as="geometry">
            <mxRectangle width="124" height="58" as="alternateBounds" />
          </mxGeometry>
        </mxCell>
        <mxCell id="H2XTD4Kt-9Ox-NOwHn25-23" value="dd/MMM/yyyy:HH:mm:ss" style="connectable=0;recursiveResize=0;strokeColor=inherit;fillColor=inherit;align=center;whiteSpace=wrap;html=1;" vertex="1" parent="H2XTD4Kt-9Ox-NOwHn25-6">
          <mxGeometry x="686" width="153" height="58" as="geometry">
            <mxRectangle width="153" height="58" as="alternateBounds" />
          </mxGeometry>
        </mxCell>
        <mxCell id="H2XTD4Kt-9Ox-NOwHn25-48" style="connectable=0;recursiveResize=0;strokeColor=inherit;fillColor=inherit;align=center;whiteSpace=wrap;html=1;" vertex="1" parent="H2XTD4Kt-9Ox-NOwHn25-6">
          <mxGeometry x="839" width="145" height="58" as="geometry">
            <mxRectangle width="145" height="58" as="alternateBounds" />
          </mxGeometry>
        </mxCell>
        <mxCell id="H2XTD4Kt-9Ox-NOwHn25-10" value="" style="shape=tableRow;horizontal=0;startSize=0;swimlaneHead=0;swimlaneBody=0;top=0;left=0;bottom=0;right=0;dropTarget=0;collapsible=0;recursiveResize=0;expand=0;fontStyle=1;strokeColor=inherit;fillColor=#EAF2D3;" vertex="1" parent="H2XTD4Kt-9Ox-NOwHn25-1">
          <mxGeometry y="119" width="984.25" height="55" as="geometry" />
        </mxCell>
        <mxCell id="H2XTD4Kt-9Ox-NOwHn25-29" value="2" style="connectable=0;recursiveResize=0;strokeColor=inherit;fillColor=inherit;whiteSpace=wrap;html=1;" vertex="1" parent="H2XTD4Kt-9Ox-NOwHn25-10">
          <mxGeometry width="59" height="55" as="geometry">
            <mxRectangle width="59" height="55" as="alternateBounds" />
          </mxGeometry>
        </mxCell>
        <mxCell id="H2XTD4Kt-9Ox-NOwHn25-11" value="Value2.jpg" style="connectable=0;recursiveResize=0;strokeColor=inherit;fillColor=inherit;whiteSpace=wrap;html=1;" vertex="1" parent="H2XTD4Kt-9Ox-NOwHn25-10">
          <mxGeometry x="59" width="124" height="55" as="geometry">
            <mxRectangle width="124" height="55" as="alternateBounds" />
          </mxGeometry>
        </mxCell>
        <mxCell id="H2XTD4Kt-9Ox-NOwHn25-12" value="Tomato" style="connectable=0;recursiveResize=0;strokeColor=inherit;fillColor=inherit;whiteSpace=wrap;html=1;" vertex="1" parent="H2XTD4Kt-9Ox-NOwHn25-10">
          <mxGeometry x="183" width="130" height="55" as="geometry">
            <mxRectangle width="130" height="55" as="alternateBounds" />
          </mxGeometry>
        </mxCell>
        <mxCell id="H2XTD4Kt-9Ox-NOwHn25-13" value="Tomato" style="connectable=0;recursiveResize=0;strokeColor=inherit;fillColor=inherit;whiteSpace=wrap;html=1;" vertex="1" parent="H2XTD4Kt-9Ox-NOwHn25-10">
          <mxGeometry x="313" width="124" height="55" as="geometry">
            <mxRectangle width="124" height="55" as="alternateBounds" />
          </mxGeometry>
        </mxCell>
        <mxCell id="H2XTD4Kt-9Ox-NOwHn25-39" value="Success" style="connectable=0;recursiveResize=0;strokeColor=inherit;fillColor=inherit;whiteSpace=wrap;html=1;" vertex="1" parent="H2XTD4Kt-9Ox-NOwHn25-10">
          <mxGeometry x="437" width="125" height="55" as="geometry">
            <mxRectangle width="125" height="55" as="alternateBounds" />
          </mxGeometry>
        </mxCell>
        <mxCell id="H2XTD4Kt-9Ox-NOwHn25-44" value="Large" style="connectable=0;recursiveResize=0;strokeColor=inherit;fillColor=inherit;whiteSpace=wrap;html=1;" vertex="1" parent="H2XTD4Kt-9Ox-NOwHn25-10">
          <mxGeometry x="562" width="124" height="55" as="geometry">
            <mxRectangle width="124" height="55" as="alternateBounds" />
          </mxGeometry>
        </mxCell>
        <mxCell id="H2XTD4Kt-9Ox-NOwHn25-24" value="dd/MMM/yyyy:HH:mm:ss" style="connectable=0;recursiveResize=0;strokeColor=inherit;fillColor=inherit;whiteSpace=wrap;html=1;" vertex="1" parent="H2XTD4Kt-9Ox-NOwHn25-10">
          <mxGeometry x="686" width="153" height="55" as="geometry">
            <mxRectangle width="153" height="55" as="alternateBounds" />
          </mxGeometry>
        </mxCell>
        <mxCell id="H2XTD4Kt-9Ox-NOwHn25-49" style="connectable=0;recursiveResize=0;strokeColor=inherit;fillColor=inherit;whiteSpace=wrap;html=1;" vertex="1" parent="H2XTD4Kt-9Ox-NOwHn25-10">
          <mxGeometry x="839" width="145" height="55" as="geometry">
            <mxRectangle width="145" height="55" as="alternateBounds" />
          </mxGeometry>
        </mxCell>
        <mxCell id="H2XTD4Kt-9Ox-NOwHn25-14" value="" style="shape=tableRow;horizontal=0;startSize=0;swimlaneHead=0;swimlaneBody=0;top=0;left=0;bottom=0;right=0;dropTarget=0;collapsible=0;recursiveResize=0;expand=0;fontStyle=0;strokeColor=inherit;fillColor=#ffffff;" vertex="1" parent="H2XTD4Kt-9Ox-NOwHn25-1">
          <mxGeometry y="174" width="984.25" height="61" as="geometry" />
        </mxCell>
        <mxCell id="H2XTD4Kt-9Ox-NOwHn25-30" value="3" style="connectable=0;recursiveResize=0;strokeColor=inherit;fillColor=inherit;fontStyle=0;align=center;whiteSpace=wrap;html=1;" vertex="1" parent="H2XTD4Kt-9Ox-NOwHn25-14">
          <mxGeometry width="59" height="61" as="geometry">
            <mxRectangle width="59" height="61" as="alternateBounds" />
          </mxGeometry>
        </mxCell>
        <mxCell id="H2XTD4Kt-9Ox-NOwHn25-15" value="Value3.jpeg" style="connectable=0;recursiveResize=0;strokeColor=inherit;fillColor=inherit;fontStyle=0;align=center;whiteSpace=wrap;html=1;" vertex="1" parent="H2XTD4Kt-9Ox-NOwHn25-14">
          <mxGeometry x="59" width="124" height="61" as="geometry">
            <mxRectangle width="124" height="61" as="alternateBounds" />
          </mxGeometry>
        </mxCell>
        <mxCell id="H2XTD4Kt-9Ox-NOwHn25-16" value="Cucumber" style="connectable=0;recursiveResize=0;strokeColor=inherit;fillColor=inherit;fontStyle=0;align=center;whiteSpace=wrap;html=1;" vertex="1" parent="H2XTD4Kt-9Ox-NOwHn25-14">
          <mxGeometry x="183" width="130" height="61" as="geometry">
            <mxRectangle width="130" height="61" as="alternateBounds" />
          </mxGeometry>
        </mxCell>
        <mxCell id="H2XTD4Kt-9Ox-NOwHn25-17" value="Tomato" style="connectable=0;recursiveResize=0;strokeColor=inherit;fillColor=inherit;fontStyle=0;align=center;whiteSpace=wrap;html=1;" vertex="1" parent="H2XTD4Kt-9Ox-NOwHn25-14">
          <mxGeometry x="313" width="124" height="61" as="geometry">
            <mxRectangle width="124" height="61" as="alternateBounds" />
          </mxGeometry>
        </mxCell>
        <mxCell id="H2XTD4Kt-9Ox-NOwHn25-40" value="Failure" style="connectable=0;recursiveResize=0;strokeColor=inherit;fillColor=inherit;fontStyle=0;align=center;whiteSpace=wrap;html=1;" vertex="1" parent="H2XTD4Kt-9Ox-NOwHn25-14">
          <mxGeometry x="437" width="125" height="61" as="geometry">
            <mxRectangle width="125" height="61" as="alternateBounds" />
          </mxGeometry>
        </mxCell>
        <mxCell id="H2XTD4Kt-9Ox-NOwHn25-45" value="Small" style="connectable=0;recursiveResize=0;strokeColor=inherit;fillColor=inherit;fontStyle=0;align=center;whiteSpace=wrap;html=1;" vertex="1" parent="H2XTD4Kt-9Ox-NOwHn25-14">
          <mxGeometry x="562" width="124" height="61" as="geometry">
            <mxRectangle width="124" height="61" as="alternateBounds" />
          </mxGeometry>
        </mxCell>
        <mxCell id="H2XTD4Kt-9Ox-NOwHn25-25" value="dd/MMM/yyyy:HH:mm:ss" style="connectable=0;recursiveResize=0;strokeColor=inherit;fillColor=inherit;fontStyle=0;align=center;whiteSpace=wrap;html=1;" vertex="1" parent="H2XTD4Kt-9Ox-NOwHn25-14">
          <mxGeometry x="686" width="153" height="61" as="geometry">
            <mxRectangle width="153" height="61" as="alternateBounds" />
          </mxGeometry>
        </mxCell>
        <mxCell id="H2XTD4Kt-9Ox-NOwHn25-50" style="connectable=0;recursiveResize=0;strokeColor=inherit;fillColor=inherit;fontStyle=0;align=center;whiteSpace=wrap;html=1;" vertex="1" parent="H2XTD4Kt-9Ox-NOwHn25-14">
          <mxGeometry x="839" width="145" height="61" as="geometry">
            <mxRectangle width="145" height="61" as="alternateBounds" />
          </mxGeometry>
        </mxCell>
        <mxCell id="H2XTD4Kt-9Ox-NOwHn25-18" value="" style="shape=tableRow;horizontal=0;startSize=0;swimlaneHead=0;swimlaneBody=0;top=0;left=0;bottom=0;right=0;dropTarget=0;collapsible=0;recursiveResize=0;expand=0;fontStyle=1;strokeColor=inherit;fillColor=#EAF2D3;" vertex="1" parent="H2XTD4Kt-9Ox-NOwHn25-1">
          <mxGeometry y="235" width="984.25" height="55" as="geometry" />
        </mxCell>
        <mxCell id="H2XTD4Kt-9Ox-NOwHn25-31" value="4" style="connectable=0;recursiveResize=0;strokeColor=inherit;fillColor=inherit;whiteSpace=wrap;html=1;" vertex="1" parent="H2XTD4Kt-9Ox-NOwHn25-18">
          <mxGeometry width="59" height="55" as="geometry">
            <mxRectangle width="59" height="55" as="alternateBounds" />
          </mxGeometry>
        </mxCell>
        <mxCell id="H2XTD4Kt-9Ox-NOwHn25-19" value="Value4.avif" style="connectable=0;recursiveResize=0;strokeColor=inherit;fillColor=inherit;whiteSpace=wrap;html=1;" vertex="1" parent="H2XTD4Kt-9Ox-NOwHn25-18">
          <mxGeometry x="59" width="124" height="55" as="geometry">
            <mxRectangle width="124" height="55" as="alternateBounds" />
          </mxGeometry>
        </mxCell>
        <mxCell id="H2XTD4Kt-9Ox-NOwHn25-20" value="Bottlegourd" style="connectable=0;recursiveResize=0;strokeColor=inherit;fillColor=inherit;whiteSpace=wrap;html=1;" vertex="1" parent="H2XTD4Kt-9Ox-NOwHn25-18">
          <mxGeometry x="183" width="130" height="55" as="geometry">
            <mxRectangle width="130" height="55" as="alternateBounds" />
          </mxGeometry>
        </mxCell>
        <mxCell id="H2XTD4Kt-9Ox-NOwHn25-21" value="Bittergourd" style="connectable=0;recursiveResize=0;strokeColor=inherit;fillColor=inherit;whiteSpace=wrap;html=1;" vertex="1" parent="H2XTD4Kt-9Ox-NOwHn25-18">
          <mxGeometry x="313" width="124" height="55" as="geometry">
            <mxRectangle width="124" height="55" as="alternateBounds" />
          </mxGeometry>
        </mxCell>
        <mxCell id="H2XTD4Kt-9Ox-NOwHn25-41" value="Failure" style="connectable=0;recursiveResize=0;strokeColor=inherit;fillColor=inherit;whiteSpace=wrap;html=1;" vertex="1" parent="H2XTD4Kt-9Ox-NOwHn25-18">
          <mxGeometry x="437" width="125" height="55" as="geometry">
            <mxRectangle width="125" height="55" as="alternateBounds" />
          </mxGeometry>
        </mxCell>
        <mxCell id="H2XTD4Kt-9Ox-NOwHn25-46" value="Small" style="connectable=0;recursiveResize=0;strokeColor=inherit;fillColor=inherit;whiteSpace=wrap;html=1;" vertex="1" parent="H2XTD4Kt-9Ox-NOwHn25-18">
          <mxGeometry x="562" width="124" height="55" as="geometry">
            <mxRectangle width="124" height="55" as="alternateBounds" />
          </mxGeometry>
        </mxCell>
        <mxCell id="H2XTD4Kt-9Ox-NOwHn25-26" value="dd/MMM/yyyy:HH:mm:ss" style="connectable=0;recursiveResize=0;strokeColor=inherit;fillColor=inherit;whiteSpace=wrap;html=1;" vertex="1" parent="H2XTD4Kt-9Ox-NOwHn25-18">
          <mxGeometry x="686" width="153" height="55" as="geometry">
            <mxRectangle width="153" height="55" as="alternateBounds" />
          </mxGeometry>
        </mxCell>
        <mxCell id="H2XTD4Kt-9Ox-NOwHn25-51" style="connectable=0;recursiveResize=0;strokeColor=inherit;fillColor=inherit;whiteSpace=wrap;html=1;" vertex="1" parent="H2XTD4Kt-9Ox-NOwHn25-18">
          <mxGeometry x="839" width="145" height="55" as="geometry">
            <mxRectangle width="145" height="55" as="alternateBounds" />
          </mxGeometry>
        </mxCell>
        <mxCell id="_vVUh05pe-uiF_YAsJHq-151" value="Delete" style="strokeWidth=1;shadow=0;dashed=0;align=center;html=1;shape=mxgraph.mockup.buttons.button;strokeColor=#b85450;mainText=;buttonStyle=round;fontSize=17;fontStyle=1;fillColor=#f8cecc;whiteSpace=wrap;" parent="1" vertex="1">
          <mxGeometry x="1010" y="460" width="70" height="30" as="geometry" />
        </mxCell>
        <mxCell id="_vVUh05pe-uiF_YAsJHq-152" value="Delete" style="strokeWidth=1;shadow=0;dashed=0;align=center;html=1;shape=mxgraph.mockup.buttons.button;strokeColor=#b85450;mainText=;buttonStyle=round;fontSize=17;fontStyle=1;fillColor=#f8cecc;whiteSpace=wrap;" parent="1" vertex="1">
          <mxGeometry x="1010" y="513" width="70" height="30" as="geometry" />
        </mxCell>
        <mxCell id="_vVUh05pe-uiF_YAsJHq-154" value="Delete" style="strokeWidth=1;shadow=0;dashed=0;align=center;html=1;shape=mxgraph.mockup.buttons.button;strokeColor=#b85450;mainText=;buttonStyle=round;fontSize=17;fontStyle=1;fillColor=#f8cecc;whiteSpace=wrap;" parent="1" vertex="1">
          <mxGeometry x="1010" y="568" width="70" height="30" as="geometry" />
        </mxCell>
        <mxCell id="_vVUh05pe-uiF_YAsJHq-155" value="Delete" style="strokeWidth=1;shadow=0;dashed=0;align=center;html=1;shape=mxgraph.mockup.buttons.button;strokeColor=#b85450;mainText=;buttonStyle=round;fontSize=17;fontStyle=1;fillColor=#f8cecc;whiteSpace=wrap;" parent="1" vertex="1">
          <mxGeometry x="1010" y="626" width="70" height="30" as="geometry" />
        </mxCell>
        <mxCell id="H2XTD4Kt-9Ox-NOwHn25-55" value="Tomato" style="strokeWidth=1;shadow=0;dashed=0;align=center;html=1;shape=mxgraph.mockup.forms.searchBox;strokeColor=#999999;mainText=;strokeColor2=#008cff;fontColor=#666666;fontSize=17;align=left;spacingLeft=3;whiteSpace=wrap;" vertex="1" parent="1">
          <mxGeometry x="1152.75" y="519" width="150" height="30" as="geometry" />
        </mxCell>
        <mxCell id="H2XTD4Kt-9Ox-NOwHn25-58" value="Prediction" style="html=1;shadow=0;dashed=0;shape=mxgraph.bootstrap.rrect;rSize=5;strokeColor=#505050;strokeWidth=1;fillColor=#ffffff;fontColor=#777777;whiteSpace=wrap;align=left;verticalAlign=middle;fontStyle=0;fontSize=14;spacingRight=0;spacing=17;" vertex="1" parent="1">
          <mxGeometry x="1152.75" y="435" width="150" height="40" as="geometry" />
        </mxCell>
        <mxCell id="H2XTD4Kt-9Ox-NOwHn25-59" value="" style="shape=triangle;direction=south;fillColor=#495057;strokeColor=none;perimeter=none;" vertex="1" parent="H2XTD4Kt-9Ox-NOwHn25-58">
          <mxGeometry x="1" y="0.5" width="10" height="5" relative="1" as="geometry">
            <mxPoint x="-17" y="-2.5" as="offset" />
          </mxGeometry>
        </mxCell>
        <mxCell id="H2XTD4Kt-9Ox-NOwHn25-60" value="Column:" style="text;html=1;points=[];align=left;verticalAlign=top;spacingTop=-4;fontSize=14;fontFamily=Verdana" vertex="1" parent="1">
          <mxGeometry x="1152.75" y="410" width="60" height="20" as="geometry" />
        </mxCell>
        <mxCell id="H2XTD4Kt-9Ox-NOwHn25-61" value="Value:" style="text;html=1;points=[];align=left;verticalAlign=top;spacingTop=-4;fontSize=14;fontFamily=Verdana" vertex="1" parent="1">
          <mxGeometry x="1152.75" y="493" width="60" height="20" as="geometry" />
        </mxCell>
        <mxCell id="H2XTD4Kt-9Ox-NOwHn25-62" value="Search" style="strokeWidth=1;shadow=0;dashed=0;align=center;html=1;shape=mxgraph.mockup.buttons.button;strokeColor=#666666;fontColor=#ffffff;mainText=;buttonStyle=round;fontSize=17;fontStyle=1;fillColor=#008cff;whiteSpace=wrap;" vertex="1" parent="1">
          <mxGeometry x="1182.75" y="596" width="90" height="30" as="geometry" />
        </mxCell>
      </root>
    </mxGraphModel>
  </diagram>
</mxfile>
